<mxfile host="app.diagrams.net" modified="2021-01-17T15:33:49.636Z" agent="5.0 (Windows NT 10.0; Win64; x64) AppleWebKit/537.36 (KHTML, like Gecko) Chrome/87.0.4280.141 Safari/537.36" etag="FxGfVJdEVEKn_SK0C54L" version="14.2.4" type="github">
  <diagram id="yYAmMzDqvFr-NnLVt_um" name="Page-1">
    <mxGraphModel dx="868" dy="1594" grid="1" gridSize="10" guides="1" tooltips="1" connect="1" arrows="1" fold="1" page="1" pageScale="1" pageWidth="827" pageHeight="1169" math="0" shadow="0">
      <root>
        <mxCell id="0" />
        <mxCell id="1" parent="0" />
        <mxCell id="rZHMEYCTppyQLj42YsIR-748" value="" style="shape=table;html=1;whiteSpace=wrap;startSize=0;container=1;collapsible=0;childLayout=tableLayout;" parent="1" vertex="1">
          <mxGeometry x="10" y="-500" width="90" height="320" as="geometry" />
        </mxCell>
        <mxCell id="rZHMEYCTppyQLj42YsIR-752" value="" style="shape=partialRectangle;html=1;whiteSpace=wrap;collapsible=0;dropTarget=0;pointerEvents=0;fillColor=none;top=0;left=0;bottom=0;right=0;points=[[0,0.5],[1,0.5]];portConstraint=eastwest;" parent="rZHMEYCTppyQLj42YsIR-748" vertex="1">
          <mxGeometry width="90" height="40" as="geometry" />
        </mxCell>
        <mxCell id="rZHMEYCTppyQLj42YsIR-753" value="&lt;b&gt;Police&lt;/b&gt;" style="shape=partialRectangle;html=1;whiteSpace=wrap;connectable=0;overflow=hidden;fillColor=none;top=0;left=0;bottom=0;right=0;" parent="rZHMEYCTppyQLj42YsIR-752" vertex="1">
          <mxGeometry width="90" height="40" as="geometry" />
        </mxCell>
        <mxCell id="rZHMEYCTppyQLj42YsIR-755" value="" style="shape=partialRectangle;html=1;whiteSpace=wrap;collapsible=0;dropTarget=0;pointerEvents=0;fillColor=none;top=0;left=0;bottom=0;right=0;points=[[0,0.5],[1,0.5]];portConstraint=eastwest;" parent="rZHMEYCTppyQLj42YsIR-748" vertex="1">
          <mxGeometry y="40" width="90" height="40" as="geometry" />
        </mxCell>
        <mxCell id="rZHMEYCTppyQLj42YsIR-756" value="Police_Id(PK)" style="shape=partialRectangle;html=1;whiteSpace=wrap;connectable=0;overflow=hidden;fillColor=none;top=0;left=0;bottom=0;right=0;" parent="rZHMEYCTppyQLj42YsIR-755" vertex="1">
          <mxGeometry width="90" height="40" as="geometry" />
        </mxCell>
        <mxCell id="rZHMEYCTppyQLj42YsIR-758" value="" style="shape=partialRectangle;html=1;whiteSpace=wrap;collapsible=0;dropTarget=0;pointerEvents=0;fillColor=none;top=0;left=0;bottom=0;right=0;points=[[0,0.5],[1,0.5]];portConstraint=eastwest;" parent="rZHMEYCTppyQLj42YsIR-748" vertex="1">
          <mxGeometry y="80" width="90" height="40" as="geometry" />
        </mxCell>
        <mxCell id="rZHMEYCTppyQLj42YsIR-759" value="Senior_Incharge" style="shape=partialRectangle;html=1;whiteSpace=wrap;connectable=0;overflow=hidden;fillColor=none;top=0;left=0;bottom=0;right=0;" parent="rZHMEYCTppyQLj42YsIR-758" vertex="1">
          <mxGeometry width="90" height="40" as="geometry" />
        </mxCell>
        <mxCell id="rZHMEYCTppyQLj42YsIR-761" value="" style="shape=partialRectangle;html=1;whiteSpace=wrap;collapsible=0;dropTarget=0;pointerEvents=0;fillColor=none;top=0;left=0;bottom=0;right=0;points=[[0,0.5],[1,0.5]];portConstraint=eastwest;" parent="rZHMEYCTppyQLj42YsIR-748" vertex="1">
          <mxGeometry y="120" width="90" height="40" as="geometry" />
        </mxCell>
        <mxCell id="rZHMEYCTppyQLj42YsIR-762" value="PS_Name" style="shape=partialRectangle;html=1;whiteSpace=wrap;connectable=0;overflow=hidden;fillColor=none;top=0;left=0;bottom=0;right=0;" parent="rZHMEYCTppyQLj42YsIR-761" vertex="1">
          <mxGeometry width="90" height="40" as="geometry" />
        </mxCell>
        <mxCell id="rZHMEYCTppyQLj42YsIR-764" value="" style="shape=partialRectangle;html=1;whiteSpace=wrap;collapsible=0;dropTarget=0;pointerEvents=0;fillColor=none;top=0;left=0;bottom=0;right=0;points=[[0,0.5],[1,0.5]];portConstraint=eastwest;" parent="rZHMEYCTppyQLj42YsIR-748" vertex="1">
          <mxGeometry y="160" width="90" height="40" as="geometry" />
        </mxCell>
        <mxCell id="rZHMEYCTppyQLj42YsIR-765" value="&lt;b&gt;PS_Id&lt;/b&gt;(&lt;b&gt;FK&lt;/b&gt;)" style="shape=partialRectangle;html=1;whiteSpace=wrap;connectable=0;overflow=hidden;fillColor=none;top=0;left=0;bottom=0;right=0;" parent="rZHMEYCTppyQLj42YsIR-764" vertex="1">
          <mxGeometry width="90" height="40" as="geometry" />
        </mxCell>
        <mxCell id="rZHMEYCTppyQLj42YsIR-767" value="" style="shape=partialRectangle;html=1;whiteSpace=wrap;collapsible=0;dropTarget=0;pointerEvents=0;fillColor=none;top=0;left=0;bottom=0;right=0;points=[[0,0.5],[1,0.5]];portConstraint=eastwest;" parent="rZHMEYCTppyQLj42YsIR-748" vertex="1">
          <mxGeometry y="200" width="90" height="40" as="geometry" />
        </mxCell>
        <mxCell id="rZHMEYCTppyQLj42YsIR-768" value="Rank" style="shape=partialRectangle;html=1;whiteSpace=wrap;connectable=0;overflow=hidden;fillColor=none;top=0;left=0;bottom=0;right=0;" parent="rZHMEYCTppyQLj42YsIR-767" vertex="1">
          <mxGeometry width="90" height="40" as="geometry" />
        </mxCell>
        <mxCell id="rZHMEYCTppyQLj42YsIR-749" value="" style="shape=partialRectangle;html=1;whiteSpace=wrap;collapsible=0;dropTarget=0;pointerEvents=0;fillColor=none;top=0;left=0;bottom=0;right=0;points=[[0,0.5],[1,0.5]];portConstraint=eastwest;" parent="rZHMEYCTppyQLj42YsIR-748" vertex="1">
          <mxGeometry y="240" width="90" height="40" as="geometry" />
        </mxCell>
        <mxCell id="rZHMEYCTppyQLj42YsIR-750" value="DOJ" style="shape=partialRectangle;html=1;whiteSpace=wrap;connectable=0;overflow=hidden;fillColor=none;top=0;left=0;bottom=0;right=0;" parent="rZHMEYCTppyQLj42YsIR-749" vertex="1">
          <mxGeometry width="90" height="40" as="geometry" />
        </mxCell>
        <mxCell id="rZHMEYCTppyQLj42YsIR-773" style="shape=partialRectangle;html=1;whiteSpace=wrap;collapsible=0;dropTarget=0;pointerEvents=0;fillColor=none;top=0;left=0;bottom=0;right=0;points=[[0,0.5],[1,0.5]];portConstraint=eastwest;" parent="rZHMEYCTppyQLj42YsIR-748" vertex="1">
          <mxGeometry y="280" width="90" height="40" as="geometry" />
        </mxCell>
        <mxCell id="rZHMEYCTppyQLj42YsIR-774" value="DOB" style="shape=partialRectangle;html=1;whiteSpace=wrap;connectable=0;overflow=hidden;fillColor=none;top=0;left=0;bottom=0;right=0;" parent="rZHMEYCTppyQLj42YsIR-773" vertex="1">
          <mxGeometry width="90" height="40" as="geometry" />
        </mxCell>
        <mxCell id="rZHMEYCTppyQLj42YsIR-776" value="" style="shape=table;html=1;whiteSpace=wrap;startSize=0;container=1;collapsible=0;childLayout=tableLayout;" parent="1" vertex="1">
          <mxGeometry x="170" y="-550" width="130" height="470" as="geometry" />
        </mxCell>
        <mxCell id="rZHMEYCTppyQLj42YsIR-777" value="" style="shape=partialRectangle;html=1;whiteSpace=wrap;collapsible=0;dropTarget=0;pointerEvents=0;fillColor=none;top=0;left=0;bottom=0;right=0;points=[[0,0.5],[1,0.5]];portConstraint=eastwest;" parent="rZHMEYCTppyQLj42YsIR-776" vertex="1">
          <mxGeometry width="130" height="39" as="geometry" />
        </mxCell>
        <mxCell id="rZHMEYCTppyQLj42YsIR-778" value="&lt;b&gt;Police Station&lt;/b&gt;" style="shape=partialRectangle;html=1;whiteSpace=wrap;connectable=0;overflow=hidden;fillColor=none;top=0;left=0;bottom=0;right=0;" parent="rZHMEYCTppyQLj42YsIR-777" vertex="1">
          <mxGeometry width="130" height="39" as="geometry" />
        </mxCell>
        <mxCell id="rZHMEYCTppyQLj42YsIR-779" value="" style="shape=partialRectangle;html=1;whiteSpace=wrap;collapsible=0;dropTarget=0;pointerEvents=0;fillColor=none;top=0;left=0;bottom=0;right=0;points=[[0,0.5],[1,0.5]];portConstraint=eastwest;" parent="rZHMEYCTppyQLj42YsIR-776" vertex="1">
          <mxGeometry y="39" width="130" height="39" as="geometry" />
        </mxCell>
        <mxCell id="rZHMEYCTppyQLj42YsIR-780" value="&lt;b&gt;PS_Id(PK)&lt;/b&gt;" style="shape=partialRectangle;html=1;whiteSpace=wrap;connectable=0;overflow=hidden;fillColor=none;top=0;left=0;bottom=0;right=0;" parent="rZHMEYCTppyQLj42YsIR-779" vertex="1">
          <mxGeometry width="130" height="39" as="geometry" />
        </mxCell>
        <mxCell id="rZHMEYCTppyQLj42YsIR-781" value="" style="shape=partialRectangle;html=1;whiteSpace=wrap;collapsible=0;dropTarget=0;pointerEvents=0;fillColor=none;top=0;left=0;bottom=0;right=0;points=[[0,0.5],[1,0.5]];portConstraint=eastwest;" parent="rZHMEYCTppyQLj42YsIR-776" vertex="1">
          <mxGeometry y="78" width="130" height="39" as="geometry" />
        </mxCell>
        <mxCell id="rZHMEYCTppyQLj42YsIR-782" value="PS_Name(Area)" style="shape=partialRectangle;html=1;whiteSpace=wrap;connectable=0;overflow=hidden;fillColor=none;top=0;left=0;bottom=0;right=0;" parent="rZHMEYCTppyQLj42YsIR-781" vertex="1">
          <mxGeometry width="130" height="39" as="geometry" />
        </mxCell>
        <mxCell id="rZHMEYCTppyQLj42YsIR-783" value="" style="shape=partialRectangle;html=1;whiteSpace=wrap;collapsible=0;dropTarget=0;pointerEvents=0;fillColor=none;top=0;left=0;bottom=0;right=0;points=[[0,0.5],[1,0.5]];portConstraint=eastwest;" parent="rZHMEYCTppyQLj42YsIR-776" vertex="1">
          <mxGeometry y="117" width="130" height="39" as="geometry" />
        </mxCell>
        <mxCell id="rZHMEYCTppyQLj42YsIR-784" value="Head" style="shape=partialRectangle;html=1;whiteSpace=wrap;connectable=0;overflow=hidden;fillColor=none;top=0;left=0;bottom=0;right=0;" parent="rZHMEYCTppyQLj42YsIR-783" vertex="1">
          <mxGeometry width="130" height="39" as="geometry" />
        </mxCell>
        <mxCell id="rZHMEYCTppyQLj42YsIR-785" value="" style="shape=partialRectangle;html=1;whiteSpace=wrap;collapsible=0;dropTarget=0;pointerEvents=0;fillColor=none;top=0;left=0;bottom=0;right=0;points=[[0,0.5],[1,0.5]];portConstraint=eastwest;" parent="rZHMEYCTppyQLj42YsIR-776" vertex="1">
          <mxGeometry y="156" width="130" height="39" as="geometry" />
        </mxCell>
        <mxCell id="rZHMEYCTppyQLj42YsIR-786" value="No_of_Polices" style="shape=partialRectangle;html=1;whiteSpace=wrap;connectable=0;overflow=hidden;fillColor=none;top=0;left=0;bottom=0;right=0;" parent="rZHMEYCTppyQLj42YsIR-785" vertex="1">
          <mxGeometry width="130" height="39" as="geometry" />
        </mxCell>
        <mxCell id="rZHMEYCTppyQLj42YsIR-787" value="" style="shape=partialRectangle;html=1;whiteSpace=wrap;collapsible=0;dropTarget=0;pointerEvents=0;fillColor=none;top=0;left=0;bottom=0;right=0;points=[[0,0.5],[1,0.5]];portConstraint=eastwest;" parent="rZHMEYCTppyQLj42YsIR-776" vertex="1">
          <mxGeometry y="195" width="130" height="40" as="geometry" />
        </mxCell>
        <mxCell id="rZHMEYCTppyQLj42YsIR-788" value="Contact_No" style="shape=partialRectangle;html=1;whiteSpace=wrap;connectable=0;overflow=hidden;fillColor=none;top=0;left=0;bottom=0;right=0;" parent="rZHMEYCTppyQLj42YsIR-787" vertex="1">
          <mxGeometry width="130" height="40" as="geometry" />
        </mxCell>
        <mxCell id="mhY5BfPLMWmCeiTtcJ5R-53" style="shape=partialRectangle;html=1;whiteSpace=wrap;collapsible=0;dropTarget=0;pointerEvents=0;fillColor=none;top=0;left=0;bottom=0;right=0;points=[[0,0.5],[1,0.5]];portConstraint=eastwest;" vertex="1" parent="rZHMEYCTppyQLj42YsIR-776">
          <mxGeometry y="235" width="130" height="40" as="geometry" />
        </mxCell>
        <mxCell id="mhY5BfPLMWmCeiTtcJ5R-54" value="Complaint_Req_Id(FK)" style="shape=partialRectangle;html=1;whiteSpace=wrap;connectable=0;overflow=hidden;fillColor=none;top=0;left=0;bottom=0;right=0;" vertex="1" parent="mhY5BfPLMWmCeiTtcJ5R-53">
          <mxGeometry width="130" height="40" as="geometry" />
        </mxCell>
        <mxCell id="rZHMEYCTppyQLj42YsIR-789" value="" style="shape=partialRectangle;html=1;whiteSpace=wrap;collapsible=0;dropTarget=0;pointerEvents=0;fillColor=none;top=0;left=0;bottom=0;right=0;points=[[0,0.5],[1,0.5]];portConstraint=eastwest;" parent="rZHMEYCTppyQLj42YsIR-776" vertex="1">
          <mxGeometry y="275" width="130" height="39" as="geometry" />
        </mxCell>
        <mxCell id="rZHMEYCTppyQLj42YsIR-790" value="Complaint_Id" style="shape=partialRectangle;html=1;whiteSpace=wrap;connectable=0;overflow=hidden;fillColor=none;top=0;left=0;bottom=0;right=0;" parent="rZHMEYCTppyQLj42YsIR-789" vertex="1">
          <mxGeometry width="130" height="39" as="geometry" />
        </mxCell>
        <mxCell id="rZHMEYCTppyQLj42YsIR-791" value="" style="shape=partialRectangle;html=1;whiteSpace=wrap;collapsible=0;dropTarget=0;pointerEvents=0;fillColor=none;top=0;left=0;bottom=0;right=0;points=[[0,0.5],[1,0.5]];portConstraint=eastwest;" parent="rZHMEYCTppyQLj42YsIR-776" vertex="1">
          <mxGeometry y="314" width="130" height="39" as="geometry" />
        </mxCell>
        <mxCell id="rZHMEYCTppyQLj42YsIR-792" value="Complaint_Dt" style="shape=partialRectangle;html=1;whiteSpace=wrap;connectable=0;overflow=hidden;fillColor=none;top=0;left=0;bottom=0;right=0;" parent="rZHMEYCTppyQLj42YsIR-791" vertex="1">
          <mxGeometry width="130" height="39" as="geometry" />
        </mxCell>
        <mxCell id="rZHMEYCTppyQLj42YsIR-793" value="" style="shape=partialRectangle;html=1;whiteSpace=wrap;collapsible=0;dropTarget=0;pointerEvents=0;fillColor=none;top=0;left=0;bottom=0;right=0;points=[[0,0.5],[1,0.5]];portConstraint=eastwest;" parent="rZHMEYCTppyQLj42YsIR-776" vertex="1">
          <mxGeometry y="353" width="130" height="39" as="geometry" />
        </mxCell>
        <mxCell id="rZHMEYCTppyQLj42YsIR-794" value="Priority" style="shape=partialRectangle;html=1;whiteSpace=wrap;connectable=0;overflow=hidden;fillColor=none;top=0;left=0;bottom=0;right=0;" parent="rZHMEYCTppyQLj42YsIR-793" vertex="1">
          <mxGeometry width="130" height="39" as="geometry" />
        </mxCell>
        <mxCell id="rZHMEYCTppyQLj42YsIR-795" value="" style="shape=partialRectangle;html=1;whiteSpace=wrap;collapsible=0;dropTarget=0;pointerEvents=0;fillColor=none;top=0;left=0;bottom=0;right=0;points=[[0,0.5],[1,0.5]];portConstraint=eastwest;" parent="rZHMEYCTppyQLj42YsIR-776" vertex="1">
          <mxGeometry y="392" width="130" height="39" as="geometry" />
        </mxCell>
        <mxCell id="rZHMEYCTppyQLj42YsIR-796" value="Remarks" style="shape=partialRectangle;html=1;whiteSpace=wrap;connectable=0;overflow=hidden;fillColor=none;top=0;left=0;bottom=0;right=0;" parent="rZHMEYCTppyQLj42YsIR-795" vertex="1">
          <mxGeometry width="130" height="39" as="geometry" />
        </mxCell>
        <mxCell id="rZHMEYCTppyQLj42YsIR-797" value="" style="shape=partialRectangle;html=1;whiteSpace=wrap;collapsible=0;dropTarget=0;pointerEvents=0;fillColor=none;top=0;left=0;bottom=0;right=0;points=[[0,0.5],[1,0.5]];portConstraint=eastwest;" parent="rZHMEYCTppyQLj42YsIR-776" vertex="1">
          <mxGeometry y="431" width="130" height="39" as="geometry" />
        </mxCell>
        <mxCell id="rZHMEYCTppyQLj42YsIR-798" value="Address" style="shape=partialRectangle;html=1;whiteSpace=wrap;connectable=0;overflow=hidden;fillColor=none;top=0;left=0;bottom=0;right=0;" parent="rZHMEYCTppyQLj42YsIR-797" vertex="1">
          <mxGeometry width="130" height="39" as="geometry" />
        </mxCell>
        <mxCell id="rZHMEYCTppyQLj42YsIR-799" value="" style="shape=table;html=1;whiteSpace=wrap;startSize=0;container=1;collapsible=0;childLayout=tableLayout;" parent="1" vertex="1">
          <mxGeometry x="380" y="-550" width="130" height="520" as="geometry" />
        </mxCell>
        <mxCell id="rZHMEYCTppyQLj42YsIR-800" value="" style="shape=partialRectangle;html=1;whiteSpace=wrap;collapsible=0;dropTarget=0;pointerEvents=0;fillColor=none;top=0;left=0;bottom=0;right=0;points=[[0,0.5],[1,0.5]];portConstraint=eastwest;" parent="rZHMEYCTppyQLj42YsIR-799" vertex="1">
          <mxGeometry width="130" height="40" as="geometry" />
        </mxCell>
        <mxCell id="rZHMEYCTppyQLj42YsIR-801" value="&lt;b&gt;FIR&lt;/b&gt;" style="shape=partialRectangle;html=1;whiteSpace=wrap;connectable=0;overflow=hidden;fillColor=none;top=0;left=0;bottom=0;right=0;" parent="rZHMEYCTppyQLj42YsIR-800" vertex="1">
          <mxGeometry width="130" height="40" as="geometry" />
        </mxCell>
        <mxCell id="rZHMEYCTppyQLj42YsIR-802" value="" style="shape=partialRectangle;html=1;whiteSpace=wrap;collapsible=0;dropTarget=0;pointerEvents=0;fillColor=none;top=0;left=0;bottom=0;right=0;points=[[0,0.5],[1,0.5]];portConstraint=eastwest;" parent="rZHMEYCTppyQLj42YsIR-799" vertex="1">
          <mxGeometry y="40" width="130" height="40" as="geometry" />
        </mxCell>
        <mxCell id="rZHMEYCTppyQLj42YsIR-803" value="&lt;b&gt;Fir_Id(PK)&lt;/b&gt;" style="shape=partialRectangle;html=1;whiteSpace=wrap;connectable=0;overflow=hidden;fillColor=none;top=0;left=0;bottom=0;right=0;" parent="rZHMEYCTppyQLj42YsIR-802" vertex="1">
          <mxGeometry width="130" height="40" as="geometry" />
        </mxCell>
        <mxCell id="rZHMEYCTppyQLj42YsIR-804" value="" style="shape=partialRectangle;html=1;whiteSpace=wrap;collapsible=0;dropTarget=0;pointerEvents=0;fillColor=none;top=0;left=0;bottom=0;right=0;points=[[0,0.5],[1,0.5]];portConstraint=eastwest;" parent="rZHMEYCTppyQLj42YsIR-799" vertex="1">
          <mxGeometry y="80" width="130" height="40" as="geometry" />
        </mxCell>
        <mxCell id="rZHMEYCTppyQLj42YsIR-805" value="Offense_Id" style="shape=partialRectangle;html=1;whiteSpace=wrap;connectable=0;overflow=hidden;fillColor=none;top=0;left=0;bottom=0;right=0;" parent="rZHMEYCTppyQLj42YsIR-804" vertex="1">
          <mxGeometry width="130" height="40" as="geometry" />
        </mxCell>
        <mxCell id="rZHMEYCTppyQLj42YsIR-806" value="" style="shape=partialRectangle;html=1;whiteSpace=wrap;collapsible=0;dropTarget=0;pointerEvents=0;fillColor=none;top=0;left=0;bottom=0;right=0;points=[[0,0.5],[1,0.5]];portConstraint=eastwest;" parent="rZHMEYCTppyQLj42YsIR-799" vertex="1">
          <mxGeometry y="120" width="130" height="40" as="geometry" />
        </mxCell>
        <mxCell id="rZHMEYCTppyQLj42YsIR-807" value="Complaint_Id" style="shape=partialRectangle;html=1;whiteSpace=wrap;connectable=0;overflow=hidden;fillColor=none;top=0;left=0;bottom=0;right=0;" parent="rZHMEYCTppyQLj42YsIR-806" vertex="1">
          <mxGeometry width="130" height="40" as="geometry" />
        </mxCell>
        <mxCell id="rZHMEYCTppyQLj42YsIR-808" value="" style="shape=partialRectangle;html=1;whiteSpace=wrap;collapsible=0;dropTarget=0;pointerEvents=0;fillColor=none;top=0;left=0;bottom=0;right=0;points=[[0,0.5],[1,0.5]];portConstraint=eastwest;" parent="rZHMEYCTppyQLj42YsIR-799" vertex="1">
          <mxGeometry y="160" width="130" height="40" as="geometry" />
        </mxCell>
        <mxCell id="rZHMEYCTppyQLj42YsIR-809" value="&lt;b&gt;PS_Id(FK)&lt;/b&gt;" style="shape=partialRectangle;html=1;whiteSpace=wrap;connectable=0;overflow=hidden;fillColor=none;top=0;left=0;bottom=0;right=0;" parent="rZHMEYCTppyQLj42YsIR-808" vertex="1">
          <mxGeometry width="130" height="40" as="geometry" />
        </mxCell>
        <mxCell id="rZHMEYCTppyQLj42YsIR-810" value="" style="shape=partialRectangle;html=1;whiteSpace=wrap;collapsible=0;dropTarget=0;pointerEvents=0;fillColor=none;top=0;left=0;bottom=0;right=0;points=[[0,0.5],[1,0.5]];portConstraint=eastwest;" parent="rZHMEYCTppyQLj42YsIR-799" vertex="1">
          <mxGeometry y="200" width="130" height="40" as="geometry" />
        </mxCell>
        <mxCell id="rZHMEYCTppyQLj42YsIR-811" value="Fir_Dt" style="shape=partialRectangle;html=1;whiteSpace=wrap;connectable=0;overflow=hidden;fillColor=none;top=0;left=0;bottom=0;right=0;" parent="rZHMEYCTppyQLj42YsIR-810" vertex="1">
          <mxGeometry width="130" height="40" as="geometry" />
        </mxCell>
        <mxCell id="rZHMEYCTppyQLj42YsIR-812" value="" style="shape=partialRectangle;html=1;whiteSpace=wrap;collapsible=0;dropTarget=0;pointerEvents=0;fillColor=none;top=0;left=0;bottom=0;right=0;points=[[0,0.5],[1,0.5]];portConstraint=eastwest;" parent="rZHMEYCTppyQLj42YsIR-799" vertex="1">
          <mxGeometry y="240" width="130" height="40" as="geometry" />
        </mxCell>
        <mxCell id="rZHMEYCTppyQLj42YsIR-813" value="Assigned_to_Head" style="shape=partialRectangle;html=1;whiteSpace=wrap;connectable=0;overflow=hidden;fillColor=none;top=0;left=0;bottom=0;right=0;" parent="rZHMEYCTppyQLj42YsIR-812" vertex="1">
          <mxGeometry width="130" height="40" as="geometry" />
        </mxCell>
        <mxCell id="rZHMEYCTppyQLj42YsIR-814" value="" style="shape=partialRectangle;html=1;whiteSpace=wrap;collapsible=0;dropTarget=0;pointerEvents=0;fillColor=none;top=0;left=0;bottom=0;right=0;points=[[0,0.5],[1,0.5]];portConstraint=eastwest;" parent="rZHMEYCTppyQLj42YsIR-799" vertex="1">
          <mxGeometry y="280" width="130" height="40" as="geometry" />
        </mxCell>
        <mxCell id="rZHMEYCTppyQLj42YsIR-815" value="Status" style="shape=partialRectangle;html=1;whiteSpace=wrap;connectable=0;overflow=hidden;fillColor=none;top=0;left=0;bottom=0;right=0;" parent="rZHMEYCTppyQLj42YsIR-814" vertex="1">
          <mxGeometry width="130" height="40" as="geometry" />
        </mxCell>
        <mxCell id="rZHMEYCTppyQLj42YsIR-816" value="" style="shape=partialRectangle;html=1;whiteSpace=wrap;collapsible=0;dropTarget=0;pointerEvents=0;fillColor=none;top=0;left=0;bottom=0;right=0;points=[[0,0.5],[1,0.5]];portConstraint=eastwest;" parent="rZHMEYCTppyQLj42YsIR-799" vertex="1">
          <mxGeometry y="320" width="130" height="40" as="geometry" />
        </mxCell>
        <mxCell id="rZHMEYCTppyQLj42YsIR-817" value="Priority" style="shape=partialRectangle;html=1;whiteSpace=wrap;connectable=0;overflow=hidden;fillColor=none;top=0;left=0;bottom=0;right=0;" parent="rZHMEYCTppyQLj42YsIR-816" vertex="1">
          <mxGeometry width="130" height="40" as="geometry" />
        </mxCell>
        <mxCell id="rZHMEYCTppyQLj42YsIR-818" value="" style="shape=partialRectangle;html=1;whiteSpace=wrap;collapsible=0;dropTarget=0;pointerEvents=0;fillColor=none;top=0;left=0;bottom=0;right=0;points=[[0,0.5],[1,0.5]];portConstraint=eastwest;" parent="rZHMEYCTppyQLj42YsIR-799" vertex="1">
          <mxGeometry y="360" width="130" height="40" as="geometry" />
        </mxCell>
        <mxCell id="rZHMEYCTppyQLj42YsIR-819" value="Complaint_Dt" style="shape=partialRectangle;html=1;whiteSpace=wrap;connectable=0;overflow=hidden;fillColor=none;top=0;left=0;bottom=0;right=0;" parent="rZHMEYCTppyQLj42YsIR-818" vertex="1">
          <mxGeometry width="130" height="40" as="geometry" />
        </mxCell>
        <mxCell id="rZHMEYCTppyQLj42YsIR-820" value="" style="shape=partialRectangle;html=1;whiteSpace=wrap;collapsible=0;dropTarget=0;pointerEvents=0;fillColor=none;top=0;left=0;bottom=0;right=0;points=[[0,0.5],[1,0.5]];portConstraint=eastwest;" parent="rZHMEYCTppyQLj42YsIR-799" vertex="1">
          <mxGeometry y="400" width="130" height="40" as="geometry" />
        </mxCell>
        <mxCell id="rZHMEYCTppyQLj42YsIR-821" value="Remarks" style="shape=partialRectangle;html=1;whiteSpace=wrap;connectable=0;overflow=hidden;fillColor=none;top=0;left=0;bottom=0;right=0;" parent="rZHMEYCTppyQLj42YsIR-820" vertex="1">
          <mxGeometry width="130" height="40" as="geometry" />
        </mxCell>
        <mxCell id="rZHMEYCTppyQLj42YsIR-822" value="" style="shape=partialRectangle;html=1;whiteSpace=wrap;collapsible=0;dropTarget=0;pointerEvents=0;fillColor=none;top=0;left=0;bottom=0;right=0;points=[[0,0.5],[1,0.5]];portConstraint=eastwest;" parent="rZHMEYCTppyQLj42YsIR-799" vertex="1">
          <mxGeometry y="440" width="130" height="40" as="geometry" />
        </mxCell>
        <mxCell id="rZHMEYCTppyQLj42YsIR-823" value="Action_Taken" style="shape=partialRectangle;html=1;whiteSpace=wrap;connectable=0;overflow=hidden;fillColor=none;top=0;left=0;bottom=0;right=0;" parent="rZHMEYCTppyQLj42YsIR-822" vertex="1">
          <mxGeometry width="130" height="40" as="geometry" />
        </mxCell>
        <mxCell id="rZHMEYCTppyQLj42YsIR-824" value="" style="shape=partialRectangle;html=1;whiteSpace=wrap;collapsible=0;dropTarget=0;pointerEvents=0;fillColor=none;top=0;left=0;bottom=0;right=0;points=[[0,0.5],[1,0.5]];portConstraint=eastwest;" parent="rZHMEYCTppyQLj42YsIR-799" vertex="1">
          <mxGeometry y="480" width="130" height="40" as="geometry" />
        </mxCell>
        <mxCell id="rZHMEYCTppyQLj42YsIR-825" value="Section" style="shape=partialRectangle;html=1;whiteSpace=wrap;connectable=0;overflow=hidden;fillColor=none;top=0;left=0;bottom=0;right=0;" parent="rZHMEYCTppyQLj42YsIR-824" vertex="1">
          <mxGeometry width="130" height="40" as="geometry" />
        </mxCell>
        <mxCell id="rZHMEYCTppyQLj42YsIR-826" value="" style="shape=table;html=1;whiteSpace=wrap;startSize=0;container=1;collapsible=0;childLayout=tableLayout;" parent="1" vertex="1">
          <mxGeometry x="560" y="-550" width="150" height="480" as="geometry" />
        </mxCell>
        <mxCell id="rZHMEYCTppyQLj42YsIR-827" value="" style="shape=partialRectangle;html=1;whiteSpace=wrap;collapsible=0;dropTarget=0;pointerEvents=0;fillColor=none;top=0;left=0;bottom=0;right=0;points=[[0,0.5],[1,0.5]];portConstraint=eastwest;" parent="rZHMEYCTppyQLj42YsIR-826" vertex="1">
          <mxGeometry width="150" height="40" as="geometry" />
        </mxCell>
        <mxCell id="rZHMEYCTppyQLj42YsIR-828" value="&lt;b&gt;Lodge_Complaint&lt;/b&gt;" style="shape=partialRectangle;html=1;whiteSpace=wrap;connectable=0;overflow=hidden;fillColor=none;top=0;left=0;bottom=0;right=0;" parent="rZHMEYCTppyQLj42YsIR-827" vertex="1">
          <mxGeometry width="150" height="40" as="geometry" />
        </mxCell>
        <mxCell id="mhY5BfPLMWmCeiTtcJ5R-49" style="shape=partialRectangle;html=1;whiteSpace=wrap;collapsible=0;dropTarget=0;pointerEvents=0;fillColor=none;top=0;left=0;bottom=0;right=0;points=[[0,0.5],[1,0.5]];portConstraint=eastwest;" vertex="1" parent="rZHMEYCTppyQLj42YsIR-826">
          <mxGeometry y="40" width="150" height="40" as="geometry" />
        </mxCell>
        <mxCell id="mhY5BfPLMWmCeiTtcJ5R-50" value="Complaint_Req_Id(Auto)&lt;b&gt;(PK)&lt;/b&gt;" style="shape=partialRectangle;html=1;whiteSpace=wrap;connectable=0;overflow=hidden;fillColor=none;top=0;left=0;bottom=0;right=0;" vertex="1" parent="mhY5BfPLMWmCeiTtcJ5R-49">
          <mxGeometry width="150" height="40" as="geometry" />
        </mxCell>
        <mxCell id="mhY5BfPLMWmCeiTtcJ5R-51" style="shape=partialRectangle;html=1;whiteSpace=wrap;collapsible=0;dropTarget=0;pointerEvents=0;fillColor=none;top=0;left=0;bottom=0;right=0;points=[[0,0.5],[1,0.5]];portConstraint=eastwest;" vertex="1" parent="rZHMEYCTppyQLj42YsIR-826">
          <mxGeometry y="80" width="150" height="40" as="geometry" />
        </mxCell>
        <mxCell id="mhY5BfPLMWmCeiTtcJ5R-52" value="Comaplaint_Dt" style="shape=partialRectangle;html=1;whiteSpace=wrap;connectable=0;overflow=hidden;fillColor=none;top=0;left=0;bottom=0;right=0;" vertex="1" parent="mhY5BfPLMWmCeiTtcJ5R-51">
          <mxGeometry width="150" height="40" as="geometry" />
        </mxCell>
        <mxCell id="rZHMEYCTppyQLj42YsIR-829" value="" style="shape=partialRectangle;html=1;whiteSpace=wrap;collapsible=0;dropTarget=0;pointerEvents=0;fillColor=none;top=0;left=0;bottom=0;right=0;points=[[0,0.5],[1,0.5]];portConstraint=eastwest;" parent="rZHMEYCTppyQLj42YsIR-826" vertex="1">
          <mxGeometry y="120" width="150" height="40" as="geometry" />
        </mxCell>
        <mxCell id="rZHMEYCTppyQLj42YsIR-830" value="User_Name" style="shape=partialRectangle;html=1;whiteSpace=wrap;connectable=0;overflow=hidden;fillColor=none;top=0;left=0;bottom=0;right=0;" parent="rZHMEYCTppyQLj42YsIR-829" vertex="1">
          <mxGeometry width="150" height="40" as="geometry" />
        </mxCell>
        <mxCell id="rZHMEYCTppyQLj42YsIR-831" value="" style="shape=partialRectangle;html=1;whiteSpace=wrap;collapsible=0;dropTarget=0;pointerEvents=0;fillColor=none;top=0;left=0;bottom=0;right=0;points=[[0,0.5],[1,0.5]];portConstraint=eastwest;" parent="rZHMEYCTppyQLj42YsIR-826" vertex="1">
          <mxGeometry y="160" width="150" height="40" as="geometry" />
        </mxCell>
        <mxCell id="rZHMEYCTppyQLj42YsIR-832" value="Id_Proof" style="shape=partialRectangle;html=1;whiteSpace=wrap;connectable=0;overflow=hidden;fillColor=none;top=0;left=0;bottom=0;right=0;" parent="rZHMEYCTppyQLj42YsIR-831" vertex="1">
          <mxGeometry width="150" height="40" as="geometry" />
        </mxCell>
        <mxCell id="rZHMEYCTppyQLj42YsIR-833" value="" style="shape=partialRectangle;html=1;whiteSpace=wrap;collapsible=0;dropTarget=0;pointerEvents=0;fillColor=none;top=0;left=0;bottom=0;right=0;points=[[0,0.5],[1,0.5]];portConstraint=eastwest;" parent="rZHMEYCTppyQLj42YsIR-826" vertex="1">
          <mxGeometry y="200" width="150" height="40" as="geometry" />
        </mxCell>
        <mxCell id="rZHMEYCTppyQLj42YsIR-834" value="Date_Time" style="shape=partialRectangle;html=1;whiteSpace=wrap;connectable=0;overflow=hidden;fillColor=none;top=0;left=0;bottom=0;right=0;" parent="rZHMEYCTppyQLj42YsIR-833" vertex="1">
          <mxGeometry width="150" height="40" as="geometry" />
        </mxCell>
        <mxCell id="rZHMEYCTppyQLj42YsIR-835" value="" style="shape=partialRectangle;html=1;whiteSpace=wrap;collapsible=0;dropTarget=0;pointerEvents=0;fillColor=none;top=0;left=0;bottom=0;right=0;points=[[0,0.5],[1,0.5]];portConstraint=eastwest;" parent="rZHMEYCTppyQLj42YsIR-826" vertex="1">
          <mxGeometry y="240" width="150" height="40" as="geometry" />
        </mxCell>
        <mxCell id="rZHMEYCTppyQLj42YsIR-836" value="DEscription" style="shape=partialRectangle;html=1;whiteSpace=wrap;connectable=0;overflow=hidden;fillColor=none;top=0;left=0;bottom=0;right=0;" parent="rZHMEYCTppyQLj42YsIR-835" vertex="1">
          <mxGeometry width="150" height="40" as="geometry" />
        </mxCell>
        <mxCell id="rZHMEYCTppyQLj42YsIR-837" value="" style="shape=partialRectangle;html=1;whiteSpace=wrap;collapsible=0;dropTarget=0;pointerEvents=0;fillColor=none;top=0;left=0;bottom=0;right=0;points=[[0,0.5],[1,0.5]];portConstraint=eastwest;" parent="rZHMEYCTppyQLj42YsIR-826" vertex="1">
          <mxGeometry y="280" width="150" height="40" as="geometry" />
        </mxCell>
        <mxCell id="rZHMEYCTppyQLj42YsIR-838" value="Contact_No" style="shape=partialRectangle;html=1;whiteSpace=wrap;connectable=0;overflow=hidden;fillColor=none;top=0;left=0;bottom=0;right=0;" parent="rZHMEYCTppyQLj42YsIR-837" vertex="1">
          <mxGeometry width="150" height="40" as="geometry" />
        </mxCell>
        <mxCell id="rZHMEYCTppyQLj42YsIR-839" value="" style="shape=partialRectangle;html=1;whiteSpace=wrap;collapsible=0;dropTarget=0;pointerEvents=0;fillColor=none;top=0;left=0;bottom=0;right=0;points=[[0,0.5],[1,0.5]];portConstraint=eastwest;" parent="rZHMEYCTppyQLj42YsIR-826" vertex="1">
          <mxGeometry y="320" width="150" height="40" as="geometry" />
        </mxCell>
        <mxCell id="rZHMEYCTppyQLj42YsIR-840" value="Email" style="shape=partialRectangle;html=1;whiteSpace=wrap;connectable=0;overflow=hidden;fillColor=none;top=0;left=0;bottom=0;right=0;" parent="rZHMEYCTppyQLj42YsIR-839" vertex="1">
          <mxGeometry width="150" height="40" as="geometry" />
        </mxCell>
        <mxCell id="rZHMEYCTppyQLj42YsIR-841" value="" style="shape=partialRectangle;html=1;whiteSpace=wrap;collapsible=0;dropTarget=0;pointerEvents=0;fillColor=none;top=0;left=0;bottom=0;right=0;points=[[0,0.5],[1,0.5]];portConstraint=eastwest;" parent="rZHMEYCTppyQLj42YsIR-826" vertex="1">
          <mxGeometry y="360" width="150" height="40" as="geometry" />
        </mxCell>
        <mxCell id="rZHMEYCTppyQLj42YsIR-842" value="Loc_Of_Incident" style="shape=partialRectangle;html=1;whiteSpace=wrap;connectable=0;overflow=hidden;fillColor=none;top=0;left=0;bottom=0;right=0;" parent="rZHMEYCTppyQLj42YsIR-841" vertex="1">
          <mxGeometry width="150" height="40" as="geometry" />
        </mxCell>
        <mxCell id="rZHMEYCTppyQLj42YsIR-843" value="" style="shape=partialRectangle;html=1;whiteSpace=wrap;collapsible=0;dropTarget=0;pointerEvents=0;fillColor=none;top=0;left=0;bottom=0;right=0;points=[[0,0.5],[1,0.5]];portConstraint=eastwest;" parent="rZHMEYCTppyQLj42YsIR-826" vertex="1">
          <mxGeometry y="400" width="150" height="40" as="geometry" />
        </mxCell>
        <mxCell id="rZHMEYCTppyQLj42YsIR-844" value="Remarks" style="shape=partialRectangle;html=1;whiteSpace=wrap;connectable=0;overflow=hidden;fillColor=none;top=0;left=0;bottom=0;right=0;" parent="rZHMEYCTppyQLj42YsIR-843" vertex="1">
          <mxGeometry width="150" height="40" as="geometry" />
        </mxCell>
        <mxCell id="rZHMEYCTppyQLj42YsIR-845" value="" style="shape=partialRectangle;html=1;whiteSpace=wrap;collapsible=0;dropTarget=0;pointerEvents=0;fillColor=none;top=0;left=0;bottom=0;right=0;points=[[0,0.5],[1,0.5]];portConstraint=eastwest;" parent="rZHMEYCTppyQLj42YsIR-826" vertex="1">
          <mxGeometry y="440" width="150" height="40" as="geometry" />
        </mxCell>
        <mxCell id="rZHMEYCTppyQLj42YsIR-846" value="Action_Taken" style="shape=partialRectangle;html=1;whiteSpace=wrap;connectable=0;overflow=hidden;fillColor=none;top=0;left=0;bottom=0;right=0;" parent="rZHMEYCTppyQLj42YsIR-845" vertex="1">
          <mxGeometry width="150" height="40" as="geometry" />
        </mxCell>
        <mxCell id="mhY5BfPLMWmCeiTtcJ5R-1" value="" style="shape=table;html=1;whiteSpace=wrap;startSize=0;container=1;collapsible=0;childLayout=tableLayout;" vertex="1" parent="1">
          <mxGeometry x="730" y="-550" width="110" height="480" as="geometry" />
        </mxCell>
        <mxCell id="mhY5BfPLMWmCeiTtcJ5R-2" value="" style="shape=partialRectangle;html=1;whiteSpace=wrap;collapsible=0;dropTarget=0;pointerEvents=0;fillColor=none;top=0;left=0;bottom=0;right=0;points=[[0,0.5],[1,0.5]];portConstraint=eastwest;" vertex="1" parent="mhY5BfPLMWmCeiTtcJ5R-1">
          <mxGeometry width="110" height="40" as="geometry" />
        </mxCell>
        <mxCell id="mhY5BfPLMWmCeiTtcJ5R-3" value="&lt;b&gt;Criminal&lt;/b&gt;" style="shape=partialRectangle;html=1;whiteSpace=wrap;connectable=0;overflow=hidden;fillColor=none;top=0;left=0;bottom=0;right=0;" vertex="1" parent="mhY5BfPLMWmCeiTtcJ5R-2">
          <mxGeometry width="110" height="40" as="geometry" />
        </mxCell>
        <mxCell id="mhY5BfPLMWmCeiTtcJ5R-4" value="" style="shape=partialRectangle;html=1;whiteSpace=wrap;collapsible=0;dropTarget=0;pointerEvents=0;fillColor=none;top=0;left=0;bottom=0;right=0;points=[[0,0.5],[1,0.5]];portConstraint=eastwest;" vertex="1" parent="mhY5BfPLMWmCeiTtcJ5R-1">
          <mxGeometry y="40" width="110" height="40" as="geometry" />
        </mxCell>
        <mxCell id="mhY5BfPLMWmCeiTtcJ5R-5" value="JC_Id(PK)" style="shape=partialRectangle;html=1;whiteSpace=wrap;connectable=0;overflow=hidden;fillColor=none;top=0;left=0;bottom=0;right=0;" vertex="1" parent="mhY5BfPLMWmCeiTtcJ5R-4">
          <mxGeometry width="110" height="40" as="geometry" />
        </mxCell>
        <mxCell id="mhY5BfPLMWmCeiTtcJ5R-6" value="" style="shape=partialRectangle;html=1;whiteSpace=wrap;collapsible=0;dropTarget=0;pointerEvents=0;fillColor=none;top=0;left=0;bottom=0;right=0;points=[[0,0.5],[1,0.5]];portConstraint=eastwest;" vertex="1" parent="mhY5BfPLMWmCeiTtcJ5R-1">
          <mxGeometry y="80" width="110" height="40" as="geometry" />
        </mxCell>
        <mxCell id="mhY5BfPLMWmCeiTtcJ5R-7" value="JC_Name" style="shape=partialRectangle;html=1;whiteSpace=wrap;connectable=0;overflow=hidden;fillColor=none;top=0;left=0;bottom=0;right=0;" vertex="1" parent="mhY5BfPLMWmCeiTtcJ5R-6">
          <mxGeometry width="110" height="40" as="geometry" />
        </mxCell>
        <mxCell id="mhY5BfPLMWmCeiTtcJ5R-24" style="shape=partialRectangle;html=1;whiteSpace=wrap;collapsible=0;dropTarget=0;pointerEvents=0;fillColor=none;top=0;left=0;bottom=0;right=0;points=[[0,0.5],[1,0.5]];portConstraint=eastwest;" vertex="1" parent="mhY5BfPLMWmCeiTtcJ5R-1">
          <mxGeometry y="120" width="110" height="40" as="geometry" />
        </mxCell>
        <mxCell id="mhY5BfPLMWmCeiTtcJ5R-25" value="Age" style="shape=partialRectangle;html=1;whiteSpace=wrap;connectable=0;overflow=hidden;fillColor=none;top=0;left=0;bottom=0;right=0;" vertex="1" parent="mhY5BfPLMWmCeiTtcJ5R-24">
          <mxGeometry width="110" height="40" as="geometry" />
        </mxCell>
        <mxCell id="mhY5BfPLMWmCeiTtcJ5R-8" value="" style="shape=partialRectangle;html=1;whiteSpace=wrap;collapsible=0;dropTarget=0;pointerEvents=0;fillColor=none;top=0;left=0;bottom=0;right=0;points=[[0,0.5],[1,0.5]];portConstraint=eastwest;" vertex="1" parent="mhY5BfPLMWmCeiTtcJ5R-1">
          <mxGeometry y="160" width="110" height="40" as="geometry" />
        </mxCell>
        <mxCell id="mhY5BfPLMWmCeiTtcJ5R-9" value="Gender" style="shape=partialRectangle;html=1;whiteSpace=wrap;connectable=0;overflow=hidden;fillColor=none;top=0;left=0;bottom=0;right=0;" vertex="1" parent="mhY5BfPLMWmCeiTtcJ5R-8">
          <mxGeometry width="110" height="40" as="geometry" />
        </mxCell>
        <mxCell id="mhY5BfPLMWmCeiTtcJ5R-10" value="" style="shape=partialRectangle;html=1;whiteSpace=wrap;collapsible=0;dropTarget=0;pointerEvents=0;fillColor=none;top=0;left=0;bottom=0;right=0;points=[[0,0.5],[1,0.5]];portConstraint=eastwest;" vertex="1" parent="mhY5BfPLMWmCeiTtcJ5R-1">
          <mxGeometry y="200" width="110" height="40" as="geometry" />
        </mxCell>
        <mxCell id="mhY5BfPLMWmCeiTtcJ5R-11" value="Height" style="shape=partialRectangle;html=1;whiteSpace=wrap;connectable=0;overflow=hidden;fillColor=none;top=0;left=0;bottom=0;right=0;" vertex="1" parent="mhY5BfPLMWmCeiTtcJ5R-10">
          <mxGeometry width="110" height="40" as="geometry" />
        </mxCell>
        <mxCell id="mhY5BfPLMWmCeiTtcJ5R-12" value="" style="shape=partialRectangle;html=1;whiteSpace=wrap;collapsible=0;dropTarget=0;pointerEvents=0;fillColor=none;top=0;left=0;bottom=0;right=0;points=[[0,0.5],[1,0.5]];portConstraint=eastwest;" vertex="1" parent="mhY5BfPLMWmCeiTtcJ5R-1">
          <mxGeometry y="240" width="110" height="40" as="geometry" />
        </mxCell>
        <mxCell id="mhY5BfPLMWmCeiTtcJ5R-13" value="Weight" style="shape=partialRectangle;html=1;whiteSpace=wrap;connectable=0;overflow=hidden;fillColor=none;top=0;left=0;bottom=0;right=0;" vertex="1" parent="mhY5BfPLMWmCeiTtcJ5R-12">
          <mxGeometry width="110" height="40" as="geometry" />
        </mxCell>
        <mxCell id="mhY5BfPLMWmCeiTtcJ5R-14" value="" style="shape=partialRectangle;html=1;whiteSpace=wrap;collapsible=0;dropTarget=0;pointerEvents=0;fillColor=none;top=0;left=0;bottom=0;right=0;points=[[0,0.5],[1,0.5]];portConstraint=eastwest;" vertex="1" parent="mhY5BfPLMWmCeiTtcJ5R-1">
          <mxGeometry y="280" width="110" height="40" as="geometry" />
        </mxCell>
        <mxCell id="mhY5BfPLMWmCeiTtcJ5R-15" value="Picture" style="shape=partialRectangle;html=1;whiteSpace=wrap;connectable=0;overflow=hidden;fillColor=none;top=0;left=0;bottom=0;right=0;" vertex="1" parent="mhY5BfPLMWmCeiTtcJ5R-14">
          <mxGeometry width="110" height="40" as="geometry" />
        </mxCell>
        <mxCell id="mhY5BfPLMWmCeiTtcJ5R-16" value="" style="shape=partialRectangle;html=1;whiteSpace=wrap;collapsible=0;dropTarget=0;pointerEvents=0;fillColor=none;top=0;left=0;bottom=0;right=0;points=[[0,0.5],[1,0.5]];portConstraint=eastwest;" vertex="1" parent="mhY5BfPLMWmCeiTtcJ5R-1">
          <mxGeometry y="320" width="110" height="40" as="geometry" />
        </mxCell>
        <mxCell id="mhY5BfPLMWmCeiTtcJ5R-17" value="&lt;b&gt;PS_Id&lt;/b&gt;" style="shape=partialRectangle;html=1;whiteSpace=wrap;connectable=0;overflow=hidden;fillColor=none;top=0;left=0;bottom=0;right=0;" vertex="1" parent="mhY5BfPLMWmCeiTtcJ5R-16">
          <mxGeometry width="110" height="40" as="geometry" />
        </mxCell>
        <mxCell id="mhY5BfPLMWmCeiTtcJ5R-18" value="" style="shape=partialRectangle;html=1;whiteSpace=wrap;collapsible=0;dropTarget=0;pointerEvents=0;fillColor=none;top=0;left=0;bottom=0;right=0;points=[[0,0.5],[1,0.5]];portConstraint=eastwest;" vertex="1" parent="mhY5BfPLMWmCeiTtcJ5R-1">
          <mxGeometry y="360" width="110" height="40" as="geometry" />
        </mxCell>
        <mxCell id="mhY5BfPLMWmCeiTtcJ5R-19" value="Crime" style="shape=partialRectangle;html=1;whiteSpace=wrap;connectable=0;overflow=hidden;fillColor=none;top=0;left=0;bottom=0;right=0;" vertex="1" parent="mhY5BfPLMWmCeiTtcJ5R-18">
          <mxGeometry width="110" height="40" as="geometry" />
        </mxCell>
        <mxCell id="mhY5BfPLMWmCeiTtcJ5R-20" value="" style="shape=partialRectangle;html=1;whiteSpace=wrap;collapsible=0;dropTarget=0;pointerEvents=0;fillColor=none;top=0;left=0;bottom=0;right=0;points=[[0,0.5],[1,0.5]];portConstraint=eastwest;" vertex="1" parent="mhY5BfPLMWmCeiTtcJ5R-1">
          <mxGeometry y="400" width="110" height="40" as="geometry" />
        </mxCell>
        <mxCell id="mhY5BfPLMWmCeiTtcJ5R-21" value="&lt;b&gt;Offense_Id&lt;/b&gt;" style="shape=partialRectangle;html=1;whiteSpace=wrap;connectable=0;overflow=hidden;fillColor=none;top=0;left=0;bottom=0;right=0;" vertex="1" parent="mhY5BfPLMWmCeiTtcJ5R-20">
          <mxGeometry width="110" height="40" as="geometry" />
        </mxCell>
        <mxCell id="mhY5BfPLMWmCeiTtcJ5R-22" value="" style="shape=partialRectangle;html=1;whiteSpace=wrap;collapsible=0;dropTarget=0;pointerEvents=0;fillColor=none;top=0;left=0;bottom=0;right=0;points=[[0,0.5],[1,0.5]];portConstraint=eastwest;" vertex="1" parent="mhY5BfPLMWmCeiTtcJ5R-1">
          <mxGeometry y="440" width="110" height="40" as="geometry" />
        </mxCell>
        <mxCell id="mhY5BfPLMWmCeiTtcJ5R-23" value="Fir_Id" style="shape=partialRectangle;html=1;whiteSpace=wrap;connectable=0;overflow=hidden;fillColor=none;top=0;left=0;bottom=0;right=0;" vertex="1" parent="mhY5BfPLMWmCeiTtcJ5R-22">
          <mxGeometry width="110" height="40" as="geometry" />
        </mxCell>
        <mxCell id="mhY5BfPLMWmCeiTtcJ5R-26" value="" style="shape=table;html=1;whiteSpace=wrap;startSize=0;container=1;collapsible=0;childLayout=tableLayout;" vertex="1" parent="1">
          <mxGeometry x="890" y="-550" width="100" height="120" as="geometry" />
        </mxCell>
        <mxCell id="mhY5BfPLMWmCeiTtcJ5R-27" value="" style="shape=partialRectangle;html=1;whiteSpace=wrap;collapsible=0;dropTarget=0;pointerEvents=0;fillColor=none;top=0;left=0;bottom=0;right=0;points=[[0,0.5],[1,0.5]];portConstraint=eastwest;" vertex="1" parent="mhY5BfPLMWmCeiTtcJ5R-26">
          <mxGeometry width="100" height="40" as="geometry" />
        </mxCell>
        <mxCell id="mhY5BfPLMWmCeiTtcJ5R-28" value="&lt;b&gt;Offense&lt;/b&gt;" style="shape=partialRectangle;html=1;whiteSpace=wrap;connectable=0;overflow=hidden;fillColor=none;top=0;left=0;bottom=0;right=0;" vertex="1" parent="mhY5BfPLMWmCeiTtcJ5R-27">
          <mxGeometry width="100" height="40" as="geometry" />
        </mxCell>
        <mxCell id="mhY5BfPLMWmCeiTtcJ5R-29" value="" style="shape=partialRectangle;html=1;whiteSpace=wrap;collapsible=0;dropTarget=0;pointerEvents=0;fillColor=none;top=0;left=0;bottom=0;right=0;points=[[0,0.5],[1,0.5]];portConstraint=eastwest;" vertex="1" parent="mhY5BfPLMWmCeiTtcJ5R-26">
          <mxGeometry y="40" width="100" height="40" as="geometry" />
        </mxCell>
        <mxCell id="mhY5BfPLMWmCeiTtcJ5R-30" value="&lt;b&gt;Offense_Id(PK)&lt;/b&gt;" style="shape=partialRectangle;html=1;whiteSpace=wrap;connectable=0;overflow=hidden;fillColor=none;top=0;left=0;bottom=0;right=0;" vertex="1" parent="mhY5BfPLMWmCeiTtcJ5R-29">
          <mxGeometry width="100" height="40" as="geometry" />
        </mxCell>
        <mxCell id="mhY5BfPLMWmCeiTtcJ5R-31" value="" style="shape=partialRectangle;html=1;whiteSpace=wrap;collapsible=0;dropTarget=0;pointerEvents=0;fillColor=none;top=0;left=0;bottom=0;right=0;points=[[0,0.5],[1,0.5]];portConstraint=eastwest;" vertex="1" parent="mhY5BfPLMWmCeiTtcJ5R-26">
          <mxGeometry y="80" width="100" height="40" as="geometry" />
        </mxCell>
        <mxCell id="mhY5BfPLMWmCeiTtcJ5R-32" value="Offense_Type" style="shape=partialRectangle;html=1;whiteSpace=wrap;connectable=0;overflow=hidden;fillColor=none;top=0;left=0;bottom=0;right=0;" vertex="1" parent="mhY5BfPLMWmCeiTtcJ5R-31">
          <mxGeometry width="100" height="40" as="geometry" />
        </mxCell>
        <mxCell id="mhY5BfPLMWmCeiTtcJ5R-33" value="" style="shape=table;html=1;whiteSpace=wrap;startSize=0;container=1;collapsible=0;childLayout=tableLayout;" vertex="1" parent="1">
          <mxGeometry x="1050" y="-550" width="90" height="160" as="geometry" />
        </mxCell>
        <mxCell id="mhY5BfPLMWmCeiTtcJ5R-34" value="" style="shape=partialRectangle;html=1;whiteSpace=wrap;collapsible=0;dropTarget=0;pointerEvents=0;fillColor=none;top=0;left=0;bottom=0;right=0;points=[[0,0.5],[1,0.5]];portConstraint=eastwest;" vertex="1" parent="mhY5BfPLMWmCeiTtcJ5R-33">
          <mxGeometry width="90" height="40" as="geometry" />
        </mxCell>
        <mxCell id="mhY5BfPLMWmCeiTtcJ5R-35" value="&lt;b&gt;Register&lt;/b&gt;" style="shape=partialRectangle;html=1;whiteSpace=wrap;connectable=0;overflow=hidden;fillColor=none;top=0;left=0;bottom=0;right=0;" vertex="1" parent="mhY5BfPLMWmCeiTtcJ5R-34">
          <mxGeometry width="90" height="40" as="geometry" />
        </mxCell>
        <mxCell id="mhY5BfPLMWmCeiTtcJ5R-36" value="" style="shape=partialRectangle;html=1;whiteSpace=wrap;collapsible=0;dropTarget=0;pointerEvents=0;fillColor=none;top=0;left=0;bottom=0;right=0;points=[[0,0.5],[1,0.5]];portConstraint=eastwest;" vertex="1" parent="mhY5BfPLMWmCeiTtcJ5R-33">
          <mxGeometry y="40" width="90" height="40" as="geometry" />
        </mxCell>
        <mxCell id="mhY5BfPLMWmCeiTtcJ5R-37" value="Id" style="shape=partialRectangle;html=1;whiteSpace=wrap;connectable=0;overflow=hidden;fillColor=none;top=0;left=0;bottom=0;right=0;" vertex="1" parent="mhY5BfPLMWmCeiTtcJ5R-36">
          <mxGeometry width="90" height="40" as="geometry" />
        </mxCell>
        <mxCell id="mhY5BfPLMWmCeiTtcJ5R-38" value="" style="shape=partialRectangle;html=1;whiteSpace=wrap;collapsible=0;dropTarget=0;pointerEvents=0;fillColor=none;top=0;left=0;bottom=0;right=0;points=[[0,0.5],[1,0.5]];portConstraint=eastwest;" vertex="1" parent="mhY5BfPLMWmCeiTtcJ5R-33">
          <mxGeometry y="80" width="90" height="40" as="geometry" />
        </mxCell>
        <mxCell id="mhY5BfPLMWmCeiTtcJ5R-39" value="Password" style="shape=partialRectangle;html=1;whiteSpace=wrap;connectable=0;overflow=hidden;fillColor=none;top=0;left=0;bottom=0;right=0;" vertex="1" parent="mhY5BfPLMWmCeiTtcJ5R-38">
          <mxGeometry width="90" height="40" as="geometry" />
        </mxCell>
        <mxCell id="mhY5BfPLMWmCeiTtcJ5R-40" value="" style="shape=partialRectangle;html=1;whiteSpace=wrap;collapsible=0;dropTarget=0;pointerEvents=0;fillColor=none;top=0;left=0;bottom=0;right=0;points=[[0,0.5],[1,0.5]];portConstraint=eastwest;" vertex="1" parent="mhY5BfPLMWmCeiTtcJ5R-33">
          <mxGeometry y="120" width="90" height="40" as="geometry" />
        </mxCell>
        <mxCell id="mhY5BfPLMWmCeiTtcJ5R-41" value="Roles" style="shape=partialRectangle;html=1;whiteSpace=wrap;connectable=0;overflow=hidden;fillColor=none;top=0;left=0;bottom=0;right=0;" vertex="1" parent="mhY5BfPLMWmCeiTtcJ5R-40">
          <mxGeometry width="90" height="40" as="geometry" />
        </mxCell>
        <mxCell id="mhY5BfPLMWmCeiTtcJ5R-42" value="" style="shape=table;html=1;whiteSpace=wrap;startSize=0;container=1;collapsible=0;childLayout=tableLayout;" vertex="1" parent="1">
          <mxGeometry x="1200" y="-550" width="90" height="120" as="geometry" />
        </mxCell>
        <mxCell id="mhY5BfPLMWmCeiTtcJ5R-43" value="" style="shape=partialRectangle;html=1;whiteSpace=wrap;collapsible=0;dropTarget=0;pointerEvents=0;fillColor=none;top=0;left=0;bottom=0;right=0;points=[[0,0.5],[1,0.5]];portConstraint=eastwest;" vertex="1" parent="mhY5BfPLMWmCeiTtcJ5R-42">
          <mxGeometry width="90" height="40" as="geometry" />
        </mxCell>
        <mxCell id="mhY5BfPLMWmCeiTtcJ5R-44" value="&lt;b&gt;Status&lt;/b&gt;" style="shape=partialRectangle;html=1;whiteSpace=wrap;connectable=0;overflow=hidden;fillColor=none;top=0;left=0;bottom=0;right=0;" vertex="1" parent="mhY5BfPLMWmCeiTtcJ5R-43">
          <mxGeometry width="90" height="40" as="geometry" />
        </mxCell>
        <mxCell id="mhY5BfPLMWmCeiTtcJ5R-45" value="" style="shape=partialRectangle;html=1;whiteSpace=wrap;collapsible=0;dropTarget=0;pointerEvents=0;fillColor=none;top=0;left=0;bottom=0;right=0;points=[[0,0.5],[1,0.5]];portConstraint=eastwest;" vertex="1" parent="mhY5BfPLMWmCeiTtcJ5R-42">
          <mxGeometry y="40" width="90" height="40" as="geometry" />
        </mxCell>
        <mxCell id="mhY5BfPLMWmCeiTtcJ5R-46" value="Status_Msg" style="shape=partialRectangle;html=1;whiteSpace=wrap;connectable=0;overflow=hidden;fillColor=none;top=0;left=0;bottom=0;right=0;" vertex="1" parent="mhY5BfPLMWmCeiTtcJ5R-45">
          <mxGeometry width="90" height="40" as="geometry" />
        </mxCell>
        <mxCell id="mhY5BfPLMWmCeiTtcJ5R-47" value="" style="shape=partialRectangle;html=1;whiteSpace=wrap;collapsible=0;dropTarget=0;pointerEvents=0;fillColor=none;top=0;left=0;bottom=0;right=0;points=[[0,0.5],[1,0.5]];portConstraint=eastwest;" vertex="1" parent="mhY5BfPLMWmCeiTtcJ5R-42">
          <mxGeometry y="80" width="90" height="40" as="geometry" />
        </mxCell>
        <mxCell id="mhY5BfPLMWmCeiTtcJ5R-48" value="Actions" style="shape=partialRectangle;html=1;whiteSpace=wrap;connectable=0;overflow=hidden;fillColor=none;top=0;left=0;bottom=0;right=0;" vertex="1" parent="mhY5BfPLMWmCeiTtcJ5R-47">
          <mxGeometry width="90" height="40" as="geometry" />
        </mxCell>
        <mxCell id="mhY5BfPLMWmCeiTtcJ5R-56" value="" style="shape=table;html=1;whiteSpace=wrap;startSize=10;container=1;collapsible=0;childLayout=tableLayout;" vertex="1" parent="1">
          <mxGeometry x="1320" y="-550" width="90" height="350" as="geometry" />
        </mxCell>
        <mxCell id="mhY5BfPLMWmCeiTtcJ5R-57" value="" style="shape=partialRectangle;html=1;whiteSpace=wrap;collapsible=0;dropTarget=0;pointerEvents=0;fillColor=none;top=0;left=0;bottom=0;right=0;points=[[0,0.5],[1,0.5]];portConstraint=eastwest;" vertex="1" parent="mhY5BfPLMWmCeiTtcJ5R-56">
          <mxGeometry y="10" width="90" height="49" as="geometry" />
        </mxCell>
        <mxCell id="mhY5BfPLMWmCeiTtcJ5R-58" value="&lt;b&gt;Notification&lt;/b&gt;" style="shape=partialRectangle;html=1;whiteSpace=wrap;connectable=0;overflow=hidden;fillColor=none;top=0;left=0;bottom=0;right=0;" vertex="1" parent="mhY5BfPLMWmCeiTtcJ5R-57">
          <mxGeometry width="90" height="49" as="geometry" />
        </mxCell>
        <mxCell id="mhY5BfPLMWmCeiTtcJ5R-59" value="" style="shape=partialRectangle;html=1;whiteSpace=wrap;collapsible=0;dropTarget=0;pointerEvents=0;fillColor=none;top=0;left=0;bottom=0;right=0;points=[[0,0.5],[1,0.5]];portConstraint=eastwest;" vertex="1" parent="mhY5BfPLMWmCeiTtcJ5R-56">
          <mxGeometry y="59" width="90" height="48" as="geometry" />
        </mxCell>
        <mxCell id="mhY5BfPLMWmCeiTtcJ5R-60" value="Notification_Id" style="shape=partialRectangle;html=1;whiteSpace=wrap;connectable=0;overflow=hidden;fillColor=none;top=0;left=0;bottom=0;right=0;" vertex="1" parent="mhY5BfPLMWmCeiTtcJ5R-59">
          <mxGeometry width="90" height="48" as="geometry" />
        </mxCell>
        <mxCell id="mhY5BfPLMWmCeiTtcJ5R-61" value="" style="shape=partialRectangle;html=1;whiteSpace=wrap;collapsible=0;dropTarget=0;pointerEvents=0;fillColor=none;top=0;left=0;bottom=0;right=0;points=[[0,0.5],[1,0.5]];portConstraint=eastwest;" vertex="1" parent="mhY5BfPLMWmCeiTtcJ5R-56">
          <mxGeometry y="107" width="90" height="49" as="geometry" />
        </mxCell>
        <mxCell id="mhY5BfPLMWmCeiTtcJ5R-62" value="Content" style="shape=partialRectangle;html=1;whiteSpace=wrap;connectable=0;overflow=hidden;fillColor=none;top=0;left=0;bottom=0;right=0;" vertex="1" parent="mhY5BfPLMWmCeiTtcJ5R-61">
          <mxGeometry width="90" height="49" as="geometry" />
        </mxCell>
        <mxCell id="mhY5BfPLMWmCeiTtcJ5R-63" value="" style="shape=partialRectangle;html=1;whiteSpace=wrap;collapsible=0;dropTarget=0;pointerEvents=0;fillColor=none;top=0;left=0;bottom=0;right=0;points=[[0,0.5],[1,0.5]];portConstraint=eastwest;" vertex="1" parent="mhY5BfPLMWmCeiTtcJ5R-56">
          <mxGeometry y="156" width="90" height="48" as="geometry" />
        </mxCell>
        <mxCell id="mhY5BfPLMWmCeiTtcJ5R-64" value="Flag(read/unread)" style="shape=partialRectangle;html=1;whiteSpace=wrap;connectable=0;overflow=hidden;fillColor=none;top=0;left=0;bottom=0;right=0;" vertex="1" parent="mhY5BfPLMWmCeiTtcJ5R-63">
          <mxGeometry width="90" height="48" as="geometry" />
        </mxCell>
        <mxCell id="mhY5BfPLMWmCeiTtcJ5R-65" value="" style="shape=partialRectangle;html=1;whiteSpace=wrap;collapsible=0;dropTarget=0;pointerEvents=0;fillColor=none;top=0;left=0;bottom=0;right=0;points=[[0,0.5],[1,0.5]];portConstraint=eastwest;" vertex="1" parent="mhY5BfPLMWmCeiTtcJ5R-56">
          <mxGeometry y="204" width="90" height="49" as="geometry" />
        </mxCell>
        <mxCell id="mhY5BfPLMWmCeiTtcJ5R-66" value="Sender_Id" style="shape=partialRectangle;html=1;whiteSpace=wrap;connectable=0;overflow=hidden;fillColor=none;top=0;left=0;bottom=0;right=0;" vertex="1" parent="mhY5BfPLMWmCeiTtcJ5R-65">
          <mxGeometry width="90" height="49" as="geometry" />
        </mxCell>
        <mxCell id="mhY5BfPLMWmCeiTtcJ5R-67" value="" style="shape=partialRectangle;html=1;whiteSpace=wrap;collapsible=0;dropTarget=0;pointerEvents=0;fillColor=none;top=0;left=0;bottom=0;right=0;points=[[0,0.5],[1,0.5]];portConstraint=eastwest;" vertex="1" parent="mhY5BfPLMWmCeiTtcJ5R-56">
          <mxGeometry y="253" width="90" height="48" as="geometry" />
        </mxCell>
        <mxCell id="mhY5BfPLMWmCeiTtcJ5R-68" value="Receiver_Id" style="shape=partialRectangle;html=1;whiteSpace=wrap;connectable=0;overflow=hidden;fillColor=none;top=0;left=0;bottom=0;right=0;" vertex="1" parent="mhY5BfPLMWmCeiTtcJ5R-67">
          <mxGeometry width="90" height="48" as="geometry" />
        </mxCell>
        <mxCell id="mhY5BfPLMWmCeiTtcJ5R-69" value="" style="shape=partialRectangle;html=1;whiteSpace=wrap;collapsible=0;dropTarget=0;pointerEvents=0;fillColor=none;top=0;left=0;bottom=0;right=0;points=[[0,0.5],[1,0.5]];portConstraint=eastwest;" vertex="1" parent="mhY5BfPLMWmCeiTtcJ5R-56">
          <mxGeometry y="301" width="90" height="49" as="geometry" />
        </mxCell>
        <mxCell id="mhY5BfPLMWmCeiTtcJ5R-70" value="Header" style="shape=partialRectangle;html=1;whiteSpace=wrap;connectable=0;overflow=hidden;fillColor=none;top=0;left=0;bottom=0;right=0;" vertex="1" parent="mhY5BfPLMWmCeiTtcJ5R-69">
          <mxGeometry width="90" height="49" as="geometry" />
        </mxCell>
        <mxCell id="mhY5BfPLMWmCeiTtcJ5R-71" value="" style="endArrow=classic;html=1;entryX=0;entryY=0.5;entryDx=0;entryDy=0;" edge="1" parent="1" target="rZHMEYCTppyQLj42YsIR-779">
          <mxGeometry width="50" height="50" relative="1" as="geometry">
            <mxPoint x="110" y="-310" as="sourcePoint" />
            <mxPoint x="400" y="-370" as="targetPoint" />
          </mxGeometry>
        </mxCell>
        <mxCell id="mhY5BfPLMWmCeiTtcJ5R-72" value="" style="endArrow=classic;html=1;" edge="1" parent="1">
          <mxGeometry width="50" height="50" relative="1" as="geometry">
            <mxPoint x="550" y="-490" as="sourcePoint" />
            <mxPoint x="310" y="-290" as="targetPoint" />
          </mxGeometry>
        </mxCell>
        <mxCell id="mhY5BfPLMWmCeiTtcJ5R-73" value="" style="endArrow=classic;html=1;exitX=0.015;exitY=0.7;exitDx=0;exitDy=0;exitPerimeter=0;" edge="1" parent="1" source="rZHMEYCTppyQLj42YsIR-808">
          <mxGeometry width="50" height="50" relative="1" as="geometry">
            <mxPoint x="350" y="-320" as="sourcePoint" />
            <mxPoint x="310" y="-490" as="targetPoint" />
          </mxGeometry>
        </mxCell>
        <mxCell id="mhY5BfPLMWmCeiTtcJ5R-74" value="" style="endArrow=classic;html=1;entryX=0.992;entryY=0.231;entryDx=0;entryDy=0;entryPerimeter=0;exitX=0;exitY=0.5;exitDx=0;exitDy=0;" edge="1" parent="1" source="mhY5BfPLMWmCeiTtcJ5R-16" target="rZHMEYCTppyQLj42YsIR-779">
          <mxGeometry width="50" height="50" relative="1" as="geometry">
            <mxPoint x="460" y="-320" as="sourcePoint" />
            <mxPoint x="510" y="-370" as="targetPoint" />
          </mxGeometry>
        </mxCell>
        <mxCell id="mhY5BfPLMWmCeiTtcJ5R-75" value="" style="endArrow=classic;html=1;entryX=0;entryY=0.35;entryDx=0;entryDy=0;entryPerimeter=0;exitX=1;exitY=0.5;exitDx=0;exitDy=0;" edge="1" parent="1" source="mhY5BfPLMWmCeiTtcJ5R-20" target="mhY5BfPLMWmCeiTtcJ5R-29">
          <mxGeometry width="50" height="50" relative="1" as="geometry">
            <mxPoint x="640" y="-320" as="sourcePoint" />
            <mxPoint x="690" y="-370" as="targetPoint" />
          </mxGeometry>
        </mxCell>
        <mxCell id="mhY5BfPLMWmCeiTtcJ5R-76" value="" style="endArrow=classic;html=1;entryX=-0.02;entryY=0.1;entryDx=0;entryDy=0;entryPerimeter=0;exitX=1.015;exitY=0.75;exitDx=0;exitDy=0;exitPerimeter=0;" edge="1" parent="1" source="rZHMEYCTppyQLj42YsIR-804" target="mhY5BfPLMWmCeiTtcJ5R-29">
          <mxGeometry width="50" height="50" relative="1" as="geometry">
            <mxPoint x="460" y="-320" as="sourcePoint" />
            <mxPoint x="510" y="-370" as="targetPoint" />
          </mxGeometry>
        </mxCell>
      </root>
    </mxGraphModel>
  </diagram>
</mxfile>
